<?xml version="1.0" encoding="UTF-8"?>
<svg width="49" height="7" viewBox="0 0 49 7" version="1.1"
    xmlns="http://www.w3.org/2000/svg"
    xmlns:xlink="http://www.w3.org/1999/xlink" xml:space="preserve"
    xmlns:serif="http://www.serif.com/" style="fill-rule:evenodd;clip-rule:evenodd;stroke-miterlimit:10;">
    <path d="M16.882,3.645c0,-1.017 -0.668,-1.735 -1.625,-1.735c-0.957,0 -1.615,0.718 -1.615,1.735c0,1.027 0.658,1.744 1.615,1.744c0.957,0 1.625,-0.717 1.625,-1.744m0,-2.512l0.927,-0l0,5.034l-0.927,0l0,-0.768c-0.219,0.399 -0.747,0.918 -1.724,0.918c-1.376,-0 -2.443,-1.157 -2.443,-2.672c0,-1.506 1.067,-2.662 2.443,-2.662c0.977,0 1.505,0.528 1.724,0.917l0,-0.767Z" style="fill-rule:nonzero;fill: #A1A1A1;"></path>
    <path d="M16.882,3.645c0,-1.017 -0.668,-1.735 -1.625,-1.735c-0.957,0 -1.615,0.718 -1.615,1.735c0,1.027 0.658,1.744 1.615,1.744c0.957,0 1.625,-0.717 1.625,-1.744Zm0,-2.512l0.927,-0l0,5.034l-0.927,0l0,-0.768c-0.219,0.399 -0.747,0.918 -1.724,0.918c-1.376,-0 -2.443,-1.157 -2.443,-2.672c0,-1.506 1.067,-2.662 2.443,-2.662c0.977,0 1.505,0.528 1.724,0.917l0,-0.767Z" style="fill:none;fill-rule:nonzero;stroke-width:0.02px;stroke: #A1A1A1;"></path>
    <path d="M0.297,2.521c-0,-0.877 0.743,-1.591 1.927,-1.591c1.643,-0 2.093,1.268 2.093,1.268l-0.763,0.484c-0,-0 -0.342,-0.826 -1.33,-0.826c-0.685,-0 -1.008,0.262 -1.008,0.634c0,0.323 0.166,0.534 0.714,0.604l0.832,0.101c1.242,0.161 1.721,0.735 1.721,1.49c0,0.876 -0.714,1.632 -2.103,1.632c-1.809,-0 -2.23,-1.319 -2.23,-1.319l0.734,-0.474c-0,0 0.352,0.866 1.486,0.866c0.9,0 1.184,-0.312 1.184,-0.684c-0,-0.333 -0.186,-0.534 -0.822,-0.615l-0.831,-0.1c-1.096,-0.141 -1.604,-0.695 -1.604,-1.47" style="fill-rule:nonzero;fill: #A1A1A1;"></path>
    <path d="M0.297,2.521c-0,-0.877 0.743,-1.591 1.927,-1.591c1.643,-0 2.093,1.268 2.093,1.268l-0.763,0.484c-0,-0 -0.342,-0.826 -1.33,-0.826c-0.685,-0 -1.008,0.262 -1.008,0.634c0,0.323 0.166,0.534 0.714,0.604l0.832,0.101c1.242,0.161 1.721,0.735 1.721,1.49c0,0.876 -0.714,1.632 -2.103,1.632c-1.809,-0 -2.23,-1.319 -2.23,-1.319l0.734,-0.474c-0,0 0.352,0.866 1.486,0.866c0.9,0 1.184,-0.312 1.184,-0.684c-0,-0.333 -0.186,-0.534 -0.822,-0.615l-0.831,-0.1c-1.096,-0.141 -1.604,-0.695 -1.604,-1.47Z" style="fill:none;fill-rule:nonzero;stroke-width:0.02px;stroke: #A1A1A1;"></path>
    <path d="M11.419,3.457c0,-1.047 -0.339,-1.591 -1.143,-1.591c-0.877,0 -1.257,0.594 -1.257,1.752l-0,2.548l-0.924,-0l0,-2.709c0,-1.047 -0.342,-1.591 -1.146,-1.591c-0.859,0 -1.227,0.564 -1.227,1.672l0,2.628l-0.954,-0l0,-5.055l0.93,0l-0.01,0.723c0.176,-0.373 0.528,-0.904 1.406,-0.904c0.868,-0 1.405,0.422 1.682,1.319l0.148,-0.383c0.175,-0.373 0.65,-0.936 1.528,-0.936c1.173,-0 1.921,0.765 1.921,2.446l0,2.79l-0.954,-0l0,-2.709Z" style="fill-rule:nonzero;stroke-width:0.02px;stroke: #A1A1A1;fill: #A1A1A1;"></path>
    <path d="M23.397,5.229c-0.604,0 -0.745,-0.322 -0.745,-0.997l-0,-2.226l1.208,0l0,-1.015l-1.208,-0l-0,-0.902l-0.937,0l0,0.902l-1.067,-0c-0.765,-0 -1.198,0.261 -1.45,0.835l0,-0.692l-0.936,-0l-0,5.032l0.936,-0l0,-2.921c0.02,-0.906 0.443,-1.237 1.319,-1.237l0.373,-0l-0,-0.002l0.825,0l0,2.357c0,1.229 0.423,1.803 1.45,1.803l0.715,-0l0,-0.937l-0.483,0Z" style="fill-rule:nonzero;stroke-width:0.02px;stroke: #A1A1A1;fill: #A1A1A1;"></path>
    <path d="M40.708,1.195c-1.473,-0 -2.669,1.088 -2.672,2.433c-0.003,1.346 1.191,2.44 2.667,2.443l4.878,0.01l0.006,-0c1.473,-0 2.669,-1.088 2.672,-2.433c0.003,-1.347 -1.191,-2.441 -2.667,-2.443l-4.878,-0.01c-0.002,-0 -0.004,-0 -0.006,-0Z" style="fill:none;fill-rule:nonzero;stroke-width:0.78px;stroke: #A1A1A1;"></path>
    <path d="M42.831,3.638c0,1.349 -1.094,2.443 -2.443,2.443c-1.349,-0 -2.443,-1.094 -2.443,-2.443c0,-1.349 1.094,-2.443 2.443,-2.443c1.349,-0 2.443,1.094 2.443,2.443" style="fill-rule:nonzero;fill: #A1A1A1;"></path>
    <path d="M42.831,3.638c0,-1.348 -1.094,-2.443 -2.443,-2.443c-1.348,-0 -2.443,1.095 -2.443,2.443c0,1.348 1.095,2.443 2.443,2.443c1.349,-0 2.443,-1.095 2.443,-2.443Z" style="fill:none;stroke-width:0.75px;stroke: #A1A1A1;"></path>
    <path d="M29.078,3.433c-0,1.35 -1.094,2.443 -2.443,2.443c-1.35,0 -2.443,-1.093 -2.443,-2.443c-0,-1.349 1.093,-2.443 2.443,-2.443c1.349,0 2.443,1.094 2.443,2.443" style="fill-rule:nonzero;fill: #A1A1A1;"></path>
    <path d="M29.078,3.433c-0,-1.348 -1.095,-2.443 -2.443,-2.443c-1.349,0 -2.443,1.095 -2.443,2.443c-0,1.349 1.094,2.443 2.443,2.443c1.348,0 2.443,-1.094 2.443,-2.443Z" style="fill:none;stroke-width:0.75px;stroke: #A1A1A1;"></path>
    <path d="M32.063,6.302c-1.5,0 -2.568,-1.188 -2.568,-2.698c0,-1.501 1.078,-2.689 2.568,-2.689c1.097,0 1.943,0.634 2.306,1.561l-0.856,0.362c-0.242,-0.614 -0.725,-0.986 -1.45,-0.986c-0.977,-0 -1.631,0.725 -1.631,1.752c-0,1.037 0.654,1.762 1.631,1.762c0.644,-0 1.087,-0.302 1.359,-0.826l0.886,0.312c-0.382,0.866 -1.188,1.45 -2.245,1.45" style="fill-rule:nonzero;fill: #A1A1A1;"></path>
    <path d="M32.063,6.302c-1.5,0 -2.568,-1.188 -2.568,-2.698c0,-1.501 1.078,-2.689 2.568,-2.689c1.097,0 1.943,0.634 2.306,1.561l-0.856,0.362c-0.242,-0.614 -0.725,-0.986 -1.45,-0.986c-0.977,-0 -1.631,0.725 -1.631,1.752c-0,1.037 0.654,1.762 1.631,1.762c0.644,-0 1.087,-0.302 1.359,-0.826l0.886,0.312c-0.382,0.866 -1.188,1.45 -2.245,1.45Z" style="fill:none;fill-rule:nonzero;stroke-width:0.02px;stroke: #A1A1A1;"></path>
    <path d="M35.223,4.349l0,-2.346l-0.856,-0l0,-0.937l0.856,0l0,-0.991l0.937,-0l-0,0.991l1.208,0l-0,0.937l-1.208,-0l-0,2.215c-0,0.674 0.14,0.997 0.745,0.997l0.483,-0l-0,0.936l-0.715,0c-1.027,0 -1.45,-0.574 -1.45,-1.802Z" style="fill-rule:nonzero;stroke-width:0.02px;stroke: #A1A1A1;fill: #A1A1A1;"></path>
    <path d="M28.981,3.463c-0,1.293 -1.048,2.341 -2.341,2.341c-1.293,-0 -2.342,-1.048 -2.342,-2.341c0,-1.293 1.049,-2.341 2.342,-2.341c1.293,-0 2.341,1.048 2.341,2.341" style="fill-rule:nonzero;fill: #A1A1A1;fill: #A1A1A1;"></path>
    <path d="M28.981,3.463c-0,-1.292 -1.049,-2.341 -2.341,-2.341c-1.292,-0 -2.342,1.049 -2.342,2.341c0,1.292 1.05,2.341 2.342,2.341c1.292,-0 2.341,-1.049 2.341,-2.341Z" style="fill:none;stroke-width:0.82px;stroke: #A1A1A1;"></path>
    <path d="M29.495,3.433c0,1.564 -1.267,2.831 -2.83,2.831c-1.563,-0 -2.83,-1.267 -2.83,-2.831c-0,-1.563 1.267,-2.83 2.83,-2.83c1.563,0 2.83,1.267 2.83,2.83" style="fill-rule:nonzero;fill: #A1A1A1;"></path>
</svg>